<svg id="レイヤー_1" data-name="レイヤー 1" xmlns="http://www.w3.org/2000/svg" viewBox="0 0 32.92 32.92"><defs><style>.cls-1{fill:#fff;}</style></defs><path class="cls-1" d="M9.59,6.66a1.87,1.87,0,0,0,1.87-1.87V1.86a1.87,1.87,0,0,0-3.73,0V4.79A1.87,1.87,0,0,0,9.59,6.66Z"/><path class="cls-1" d="M23.33,6.66a1.87,1.87,0,0,0,1.86-1.87V1.86a1.86,1.86,0,0,0-3.72,0V4.79A1.87,1.87,0,0,0,23.33,6.66Z"/><path class="cls-1" d="M28,2.65H26.83V4.79a3.5,3.5,0,0,1-7,0V2.65H13.09V4.79a3.5,3.5,0,0,1-7,0V2.65H4.94A4.49,4.49,0,0,0,.45,7.14v21.3a4.49,4.49,0,0,0,4.49,4.48H28a4.49,4.49,0,0,0,4.49-4.48V7.14A4.49,4.49,0,0,0,28,2.65ZM10.45,27.2H7.16V23.91h3.29Zm0-5.11H7.16V18.8h3.29Zm0-5.1H7.16V13.7h3.29ZM15.56,27.2h-3.3V23.91h3.3Zm0-5.11h-3.3V18.8h3.3Zm0-5.1h-3.3V13.7h3.3Zm5.1,10.21H17.37V23.91h3.29Zm0-5.11H17.37V18.8h3.29Zm0-5.1H17.37V13.7h3.29Zm5.1,10.21H22.47V23.91h3.29Zm0-5.11H22.47V18.8h3.29Zm0-5.1H22.47V13.7h3.29Z"/></svg>