<svg id="レイヤー_1" data-name="レイヤー 1" xmlns="http://www.w3.org/2000/svg" viewBox="0 0 102.5 102.5"><defs><style>.cls-1{fill:none;stroke:#fff;stroke-miterlimit:10;stroke-width:1.6px;}.cls-2{fill:#fff;}</style></defs><path class="cls-1" d="M51.25.85a50.41,50.41,0,0,1,50.4,50.4"/><path class="cls-1" d="M.85,51.25A50.41,50.41,0,0,1,51.25.85"/><path class="cls-1" d="M51.25,101.65A50.41,50.41,0,0,1,.85,51.25"/><path class="cls-1" d="M101.65,51.25a50.41,50.41,0,0,1-50.4,50.4"/><g id="レイヤー_2" data-name="レイヤー 2"><g id="レイヤー_1-2" data-name="レイヤー 1-2"><path class="cls-2" d="M69.72,56.83a2,2,0,0,1-.6,1.43,2,2,0,0,1-2.87,0L51.42,43.42,36.57,58.28a2,2,0,0,1-2.88-2.88L50,39.14a2,2,0,0,1,2.87,0L69.1,55.4A2.08,2.08,0,0,1,69.72,56.83Z"/></g></g></svg>