<?xml version="1.0" encoding="utf-8"?>
<!-- Generator: Adobe Illustrator 25.2.3, SVG Export Plug-In . SVG Version: 6.00 Build 0)  -->
<svg version="1.1" id="レイヤー_1" xmlns="http://www.w3.org/2000/svg" xmlns:xlink="http://www.w3.org/1999/xlink" x="0px"
	 y="0px" viewBox="0 0 58.5 50.1" style="enable-background:new 0 0 58.5 50.1;" xml:space="preserve">
<style type="text/css">
	.st0{fill:#FFFFFF;}
</style>
<path class="st0" d="M56.4,4.2H2.1C0.9,4.2,0,3.2,0,2.1C0,0.9,0.9,0,2.1,0h54.3c1.2,0,2.1,0.9,2.1,2.1C58.5,3.2,57.6,4.2,56.4,4.2
	C56.4,4.2,56.4,4.2,56.4,4.2z"/>
<path class="st0" d="M56.4,27.2H2.1c-1.2,0-2.1-0.9-2.1-2.1S0.9,23,2.1,23h54.3c1.2,0,2.1,0.9,2.1,2.1S57.6,27.2,56.4,27.2
	L56.4,27.2z"/>
<path class="st0" d="M56.4,50.1H2.1c-1.2,0.1-2.1-0.8-2.2-1.9C-0.2,47,0.6,46,1.8,46c0.1,0,0.2,0,0.3,0h54.3
	c1.2-0.1,2.1,0.8,2.2,1.9c0.1,1.2-0.8,2.1-1.9,2.2C56.6,50.1,56.5,50.1,56.4,50.1z"/>
</svg>
